<svg xmlns="http://www.w3.org/2000/svg" xmlns:xlink="http://www.w3.org/1999/xlink" zoomAndPan="magnify" preserveAspectRatio="xMidYMid meet" version="1.0" viewBox="325.27 368.9 151.13 72.32"><defs><g/><clipPath id="0a849635c1"><path d="M 325.296875 380 L 397.570312 380 L 397.570312 430 L 325.296875 430 Z M 325.296875 380 " clip-rule="nonzero"/></clipPath><clipPath id="9e16c7edef"><path d="M 343 368.925781 L 380 368.925781 L 380 406 L 343 406 Z M 343 368.925781 " clip-rule="nonzero"/></clipPath><clipPath id="5a9cc709d4"><path d="M 346 436 L 377 436 L 377 441.203125 L 346 441.203125 Z M 346 436 " clip-rule="nonzero"/></clipPath></defs><g clip-path="url(#0a849635c1)"><path fill="#e918be" d="M 392.300781 429.15625 L 330.566406 429.15625 C 327.660156 429.15625 325.296875 426.792969 325.296875 423.886719 L 325.296875 386.242188 C 325.296875 383.335938 327.660156 380.972656 330.566406 380.972656 L 335.082031 380.972656 C 336.328125 380.972656 337.339844 381.984375 337.339844 383.230469 C 337.339844 384.480469 336.328125 385.492188 335.082031 385.492188 L 330.566406 385.492188 C 330.148438 385.492188 329.8125 385.828125 329.8125 386.242188 L 329.8125 423.886719 C 329.8125 424.304688 330.148438 424.640625 330.566406 424.640625 L 392.300781 424.640625 C 392.71875 424.640625 393.054688 424.304688 393.054688 423.886719 L 393.054688 386.242188 C 393.054688 385.828125 392.71875 385.492188 392.300781 385.492188 L 387.785156 385.492188 C 386.539062 385.492188 385.527344 384.480469 385.527344 383.230469 C 385.527344 381.984375 386.539062 380.972656 387.785156 380.972656 L 392.300781 380.972656 C 395.207031 380.972656 397.570312 383.335938 397.570312 386.242188 L 397.570312 423.886719 C 397.570312 426.792969 395.207031 429.15625 392.300781 429.15625 Z M 392.300781 429.15625 " fill-opacity="1" fill-rule="nonzero"/></g><g clip-path="url(#9e16c7edef)"><path fill="#e918be" d="M 362.1875 405.066406 L 360.679688 405.066406 C 357.773438 405.066406 355.410156 402.703125 355.410156 399.796875 L 355.410156 393.019531 L 348.632812 393.019531 C 345.730469 393.019531 343.363281 390.65625 343.363281 387.75 L 343.363281 386.242188 C 343.363281 383.335938 345.730469 380.972656 348.632812 380.972656 L 355.410156 380.972656 L 355.410156 374.199219 C 355.410156 371.292969 357.773438 368.925781 360.679688 368.925781 L 362.1875 368.925781 C 365.09375 368.925781 367.457031 371.292969 367.457031 374.199219 L 367.457031 380.972656 L 374.234375 380.972656 C 377.136719 380.972656 379.503906 383.335938 379.503906 386.242188 L 379.503906 387.75 C 379.503906 390.65625 377.136719 393.019531 374.234375 393.019531 L 367.457031 393.019531 L 367.457031 399.796875 C 367.457031 402.703125 365.09375 405.066406 362.1875 405.066406 Z M 348.632812 385.492188 C 348.21875 385.492188 347.882812 385.828125 347.882812 386.242188 L 347.882812 387.75 C 347.882812 388.164062 348.21875 388.503906 348.632812 388.503906 L 357.667969 388.503906 C 358.917969 388.503906 359.929688 389.515625 359.929688 390.761719 L 359.929688 399.796875 C 359.929688 400.210938 360.265625 400.546875 360.679688 400.546875 L 362.1875 400.546875 C 362.601562 400.546875 362.9375 400.210938 362.9375 399.796875 L 362.9375 390.761719 C 362.9375 389.515625 363.953125 388.503906 365.199219 388.503906 L 374.234375 388.503906 C 374.648438 388.503906 374.984375 388.164062 374.984375 387.75 L 374.984375 386.242188 C 374.984375 385.828125 374.648438 385.492188 374.234375 385.492188 L 365.199219 385.492188 C 363.953125 385.492188 362.9375 384.480469 362.9375 383.230469 L 362.9375 374.199219 C 362.9375 373.78125 362.601562 373.445312 362.1875 373.445312 L 360.679688 373.445312 C 360.265625 373.445312 359.929688 373.78125 359.929688 374.199219 L 359.929688 383.230469 C 359.929688 384.480469 358.917969 385.492188 357.667969 385.492188 Z M 348.632812 385.492188 " fill-opacity="1" fill-rule="nonzero"/></g><g clip-path="url(#5a9cc709d4)"><path fill="#e918be" d="M 374.234375 441.203125 L 348.632812 441.203125 C 347.386719 441.203125 346.375 440.191406 346.375 438.945312 C 346.375 437.699219 347.386719 436.6875 348.632812 436.6875 L 374.234375 436.6875 C 375.480469 436.6875 376.492188 437.699219 376.492188 438.945312 C 376.492188 440.191406 375.480469 441.203125 374.234375 441.203125 Z M 374.234375 441.203125 " fill-opacity="1" fill-rule="nonzero"/></g><path fill="#e918be" d="M 361.433594 440.449219 C 360.1875 440.449219 359.175781 439.4375 359.175781 438.191406 L 359.175781 426.898438 C 359.175781 425.652344 360.1875 424.640625 361.433594 424.640625 C 362.679688 424.640625 363.691406 425.652344 363.691406 426.898438 L 363.691406 438.191406 C 363.691406 439.4375 362.679688 440.449219 361.433594 440.449219 Z M 361.433594 440.449219 " fill-opacity="1" fill-rule="nonzero"/><g fill="#7428ea" fill-opacity="1"><g transform="translate(406.826503, 401.242586)"><g><path d="M 7.828125 0.40625 C 6.609375 0.40625 5.539062 0.253906 4.625 -0.046875 C 3.71875 -0.359375 2.957031 -0.703125 2.34375 -1.078125 C 1.625 -1.515625 1.023438 -2.007812 0.546875 -2.5625 L 3.234375 -5.265625 C 3.566406 -4.890625 3.957031 -4.546875 4.40625 -4.234375 C 4.78125 -3.984375 5.242188 -3.753906 5.796875 -3.546875 C 6.347656 -3.335938 6.984375 -3.234375 7.703125 -3.234375 C 8.785156 -3.234375 9.570312 -3.441406 10.0625 -3.859375 C 10.5625 -4.273438 10.8125 -4.789062 10.8125 -5.40625 C 10.8125 -5.945312 10.578125 -6.375 10.109375 -6.6875 C 9.640625 -7 9.050781 -7.28125 8.34375 -7.53125 C 7.644531 -7.789062 6.890625 -8.050781 6.078125 -8.3125 C 5.265625 -8.582031 4.503906 -8.9375 3.796875 -9.375 C 3.097656 -9.820312 2.515625 -10.390625 2.046875 -11.078125 C 1.578125 -11.773438 1.34375 -12.675781 1.34375 -13.78125 C 1.34375 -14.519531 1.5 -15.222656 1.8125 -15.890625 C 2.132812 -16.566406 2.585938 -17.15625 3.171875 -17.65625 C 3.753906 -18.164062 4.472656 -18.566406 5.328125 -18.859375 C 6.191406 -19.160156 7.160156 -19.3125 8.234375 -19.3125 C 9.285156 -19.3125 10.210938 -19.175781 11.015625 -18.90625 C 11.816406 -18.632812 12.476562 -18.335938 13 -18.015625 C 13.601562 -17.640625 14.132812 -17.21875 14.59375 -16.75 L 11.890625 -14.046875 C 11.597656 -14.347656 11.28125 -14.617188 10.9375 -14.859375 C 10.632812 -15.054688 10.265625 -15.238281 9.828125 -15.40625 C 9.398438 -15.582031 8.914062 -15.671875 8.375 -15.671875 C 7.34375 -15.671875 6.609375 -15.488281 6.171875 -15.125 C 5.742188 -14.769531 5.53125 -14.320312 5.53125 -13.78125 C 5.53125 -13.238281 5.765625 -12.804688 6.234375 -12.484375 C 6.703125 -12.171875 7.285156 -11.890625 7.984375 -11.640625 C 8.691406 -11.390625 9.453125 -11.128906 10.265625 -10.859375 C 11.078125 -10.585938 11.832031 -10.226562 12.53125 -9.78125 C 13.238281 -9.34375 13.828125 -8.773438 14.296875 -8.078125 C 14.765625 -7.390625 15 -6.5 15 -5.40625 C 15 -4.625 14.832031 -3.882812 14.5 -3.1875 C 14.175781 -2.488281 13.703125 -1.875 13.078125 -1.34375 C 12.460938 -0.8125 11.710938 -0.382812 10.828125 -0.0625 C 9.953125 0.25 8.953125 0.40625 7.828125 0.40625 Z M 7.828125 0.40625 "/></g></g></g><g fill="#7428ea" fill-opacity="1"><g transform="translate(422.086571, 401.242586)"><g><path d="M 7.96875 0.265625 C 7 0.265625 6.082031 0.0859375 5.21875 -0.265625 C 4.363281 -0.628906 3.617188 -1.125 2.984375 -1.75 C 2.347656 -2.382812 1.847656 -3.113281 1.484375 -3.9375 C 1.128906 -4.769531 0.953125 -5.664062 0.953125 -6.625 C 0.953125 -7.5625 1.128906 -8.445312 1.484375 -9.28125 C 1.847656 -10.113281 2.34375 -10.84375 2.96875 -11.46875 C 3.601562 -12.101562 4.332031 -12.601562 5.15625 -12.96875 C 5.988281 -13.332031 6.878906 -13.515625 7.828125 -13.515625 C 8.753906 -13.515625 9.613281 -13.335938 10.40625 -12.984375 C 11.207031 -12.628906 11.90625 -12.15625 12.5 -11.5625 C 13.101562 -10.96875 13.578125 -10.269531 13.921875 -9.46875 C 14.273438 -8.664062 14.453125 -7.804688 14.453125 -6.890625 C 14.453125 -6.640625 14.441406 -6.414062 14.421875 -6.21875 C 14.410156 -6.03125 14.394531 -5.867188 14.375 -5.734375 C 14.351562 -5.546875 14.332031 -5.390625 14.3125 -5.265625 L 4.734375 -5.265625 C 4.929688 -4.648438 5.3125 -4.113281 5.875 -3.65625 C 6.445312 -3.195312 7.234375 -2.96875 8.234375 -2.96875 C 8.816406 -2.96875 9.320312 -3.039062 9.75 -3.1875 C 10.1875 -3.332031 10.554688 -3.503906 10.859375 -3.703125 C 11.203125 -3.921875 11.5 -4.171875 11.75 -4.453125 L 13.640625 -1.890625 C 13.242188 -1.492188 12.757812 -1.132812 12.1875 -0.8125 C 11.695312 -0.539062 11.097656 -0.289062 10.390625 -0.0625 C 9.691406 0.15625 8.882812 0.265625 7.96875 0.265625 Z M 10.671875 -7.96875 C 10.472656 -8.582031 10.113281 -9.117188 9.59375 -9.578125 C 9.082031 -10.035156 8.453125 -10.265625 7.703125 -10.265625 C 6.941406 -10.265625 6.304688 -10.035156 5.796875 -9.578125 C 5.285156 -9.117188 4.929688 -8.582031 4.734375 -7.96875 Z M 10.671875 -7.96875 "/></g></g></g><g fill="#7428ea" fill-opacity="1"><g transform="translate(436.941492, 401.242586)"><g><path d="M 1.890625 -18.90625 L 5.53125 -18.90625 L 5.53125 -11.34375 L 5.671875 -11.34375 C 5.960938 -11.738281 6.296875 -12.097656 6.671875 -12.421875 C 6.992188 -12.691406 7.398438 -12.941406 7.890625 -13.171875 C 8.378906 -13.398438 8.945312 -13.515625 9.59375 -13.515625 C 10.257812 -13.515625 10.890625 -13.378906 11.484375 -13.109375 C 12.078125 -12.847656 12.59375 -12.476562 13.03125 -12 C 13.476562 -11.53125 13.828125 -10.953125 14.078125 -10.265625 C 14.328125 -9.578125 14.453125 -8.8125 14.453125 -7.96875 L 14.453125 0 L 10.8125 0 L 10.8125 -7.421875 C 10.8125 -8.234375 10.59375 -8.863281 10.15625 -9.3125 C 9.726562 -9.769531 9.132812 -10 8.375 -10 C 7.5625 -10 6.882812 -9.722656 6.34375 -9.171875 C 5.800781 -8.617188 5.53125 -7.90625 5.53125 -7.03125 L 5.53125 0 L 1.890625 0 Z M 1.890625 -18.90625 "/></g></g></g><g fill="#7428ea" fill-opacity="1"><g transform="translate(452.606709, 401.242586)"><g><path d="M 5.140625 0.265625 C 4.523438 0.265625 3.96875 0.171875 3.46875 -0.015625 C 2.976562 -0.203125 2.554688 -0.46875 2.203125 -0.8125 C 1.847656 -1.15625 1.570312 -1.554688 1.375 -2.015625 C 1.175781 -2.472656 1.078125 -2.972656 1.078125 -3.515625 C 1.078125 -4.597656 1.421875 -5.519531 2.109375 -6.28125 C 2.804688 -7.039062 3.769531 -7.53125 5 -7.75 L 9.1875 -8.515625 C 9.113281 -8.984375 8.882812 -9.390625 8.5 -9.734375 C 8.113281 -10.085938 7.578125 -10.265625 6.890625 -10.265625 C 6.421875 -10.265625 6 -10.1875 5.625 -10.03125 C 5.257812 -9.882812 4.953125 -9.710938 4.703125 -9.515625 C 4.390625 -9.296875 4.128906 -9.050781 3.921875 -8.78125 L 1.75 -10.9375 C 2.132812 -11.40625 2.597656 -11.832031 3.140625 -12.21875 C 3.609375 -12.539062 4.171875 -12.835938 4.828125 -13.109375 C 5.492188 -13.378906 6.269531 -13.515625 7.15625 -13.515625 C 8 -13.515625 8.769531 -13.378906 9.46875 -13.109375 C 10.164062 -12.835938 10.765625 -12.460938 11.265625 -11.984375 C 11.765625 -11.503906 12.148438 -10.941406 12.421875 -10.296875 C 12.691406 -9.660156 12.828125 -8.972656 12.828125 -8.234375 L 12.828125 0 L 9.1875 0 L 9.1875 -1.625 L 9.046875 -1.625 C 8.765625 -1.257812 8.429688 -0.941406 8.046875 -0.671875 C 7.722656 -0.421875 7.3125 -0.203125 6.8125 -0.015625 C 6.320312 0.171875 5.765625 0.265625 5.140625 0.265625 Z M 6.34375 -2.703125 C 7.15625 -2.703125 7.832031 -2.972656 8.375 -3.515625 C 8.914062 -4.066406 9.1875 -4.785156 9.1875 -5.671875 L 9.1875 -5.9375 L 6.21875 -5.40625 C 5.75 -5.3125 5.382812 -5.144531 5.125 -4.90625 C 4.863281 -4.675781 4.734375 -4.390625 4.734375 -4.046875 C 4.734375 -3.640625 4.863281 -3.3125 5.125 -3.0625 C 5.394531 -2.820312 5.800781 -2.703125 6.34375 -2.703125 Z M 6.34375 -2.703125 "/></g></g></g><g fill="#7428ea" fill-opacity="1"><g transform="translate(466.651347, 401.242586)"><g><path d="M 7.296875 0.265625 C 5.941406 0.265625 4.859375 -0.148438 4.046875 -0.984375 C 3.242188 -1.828125 2.84375 -3.03125 2.84375 -4.59375 L 2.84375 -9.59375 L 0.546875 -9.59375 L 0.546875 -12.96875 L 1.75 -12.96875 C 2.738281 -12.96875 3.234375 -13.507812 3.234375 -14.59375 L 3.234375 -17.015625 L 6.484375 -17.015625 L 6.484375 -12.96875 L 9.453125 -12.96875 L 9.453125 -9.59375 L 6.484375 -9.59375 L 6.484375 -5.140625 C 6.484375 -4.523438 6.640625 -4.050781 6.953125 -3.71875 C 7.265625 -3.394531 7.691406 -3.234375 8.234375 -3.234375 C 8.628906 -3.234375 8.984375 -3.28125 9.296875 -3.375 C 9.453125 -3.414062 9.59375 -3.460938 9.71875 -3.515625 L 9.71875 -0.140625 C 9.507812 -0.0664062 9.273438 0.00390625 9.015625 0.078125 C 8.804688 0.128906 8.550781 0.171875 8.25 0.203125 C 7.957031 0.242188 7.640625 0.265625 7.296875 0.265625 Z M 7.296875 0.265625 "/></g></g></g><g fill="#7428ea" fill-opacity="1"><g transform="translate(406.826503, 425.33463)"><g><path d="M 2.4375 -18.90625 L 10.40625 -18.90625 C 11.34375 -18.90625 12.1875 -18.769531 12.9375 -18.5 C 13.695312 -18.226562 14.335938 -17.867188 14.859375 -17.421875 C 15.378906 -16.972656 15.78125 -16.441406 16.0625 -15.828125 C 16.34375 -15.210938 16.484375 -14.570312 16.484375 -13.90625 C 16.484375 -13.15625 16.347656 -12.53125 16.078125 -12.03125 C 15.804688 -11.539062 15.507812 -11.140625 15.1875 -10.828125 C 14.800781 -10.472656 14.375 -10.195312 13.90625 -10 C 14.5625 -9.800781 15.148438 -9.492188 15.671875 -9.078125 C 16.097656 -8.710938 16.492188 -8.238281 16.859375 -7.65625 C 17.234375 -7.070312 17.421875 -6.320312 17.421875 -5.40625 C 17.421875 -4.664062 17.269531 -3.96875 16.96875 -3.3125 C 16.675781 -2.65625 16.25 -2.082031 15.6875 -1.59375 C 15.132812 -1.101562 14.457031 -0.710938 13.65625 -0.421875 C 12.851562 -0.140625 11.945312 0 10.9375 0 L 2.4375 0 Z M 10.671875 -3.515625 C 11.484375 -3.515625 12.113281 -3.722656 12.5625 -4.140625 C 13.007812 -4.566406 13.234375 -5.125 13.234375 -5.8125 C 13.234375 -6.488281 13.007812 -7.039062 12.5625 -7.46875 C 12.113281 -7.894531 11.484375 -8.109375 10.671875 -8.109375 L 6.484375 -8.109375 L 6.484375 -3.515625 Z M 10.125 -11.609375 C 10.8125 -11.609375 11.34375 -11.789062 11.71875 -12.15625 C 12.101562 -12.519531 12.296875 -12.972656 12.296875 -13.515625 C 12.296875 -14.046875 12.101562 -14.492188 11.71875 -14.859375 C 11.34375 -15.222656 10.8125 -15.40625 10.125 -15.40625 L 6.484375 -15.40625 L 6.484375 -11.609375 Z M 10.125 -11.609375 "/></g></g></g><g fill="#7428ea" fill-opacity="1"><g transform="translate(424.922563, 425.33463)"><g><path d="M 5.140625 0.265625 C 4.523438 0.265625 3.96875 0.171875 3.46875 -0.015625 C 2.976562 -0.203125 2.554688 -0.46875 2.203125 -0.8125 C 1.847656 -1.15625 1.570312 -1.554688 1.375 -2.015625 C 1.175781 -2.472656 1.078125 -2.972656 1.078125 -3.515625 C 1.078125 -4.597656 1.421875 -5.519531 2.109375 -6.28125 C 2.804688 -7.039062 3.769531 -7.53125 5 -7.75 L 9.1875 -8.515625 C 9.113281 -8.984375 8.882812 -9.390625 8.5 -9.734375 C 8.113281 -10.085938 7.578125 -10.265625 6.890625 -10.265625 C 6.421875 -10.265625 6 -10.1875 5.625 -10.03125 C 5.257812 -9.882812 4.953125 -9.710938 4.703125 -9.515625 C 4.390625 -9.296875 4.128906 -9.050781 3.921875 -8.78125 L 1.75 -10.9375 C 2.132812 -11.40625 2.597656 -11.832031 3.140625 -12.21875 C 3.609375 -12.539062 4.171875 -12.835938 4.828125 -13.109375 C 5.492188 -13.378906 6.269531 -13.515625 7.15625 -13.515625 C 8 -13.515625 8.769531 -13.378906 9.46875 -13.109375 C 10.164062 -12.835938 10.765625 -12.460938 11.265625 -11.984375 C 11.765625 -11.503906 12.148438 -10.941406 12.421875 -10.296875 C 12.691406 -9.660156 12.828125 -8.972656 12.828125 -8.234375 L 12.828125 0 L 9.1875 0 L 9.1875 -1.625 L 9.046875 -1.625 C 8.765625 -1.257812 8.429688 -0.941406 8.046875 -0.671875 C 7.722656 -0.421875 7.3125 -0.203125 6.8125 -0.015625 C 6.320312 0.171875 5.765625 0.265625 5.140625 0.265625 Z M 6.34375 -2.703125 C 7.15625 -2.703125 7.832031 -2.972656 8.375 -3.515625 C 8.914062 -4.066406 9.1875 -4.785156 9.1875 -5.671875 L 9.1875 -5.9375 L 6.21875 -5.40625 C 5.75 -5.3125 5.382812 -5.144531 5.125 -4.90625 C 4.863281 -4.675781 4.734375 -4.390625 4.734375 -4.046875 C 4.734375 -3.640625 4.863281 -3.3125 5.125 -3.0625 C 5.394531 -2.820312 5.800781 -2.703125 6.34375 -2.703125 Z M 6.34375 -2.703125 "/></g></g></g><g fill="#7428ea" fill-opacity="1"><g transform="translate(438.967203, 425.33463)"><g><path d="M 6.078125 0.265625 C 5.160156 0.265625 4.347656 0.140625 3.640625 -0.109375 C 2.941406 -0.359375 2.347656 -0.640625 1.859375 -0.953125 C 1.285156 -1.285156 0.800781 -1.6875 0.40625 -2.15625 L 2.5625 -4.453125 C 2.832031 -4.171875 3.148438 -3.921875 3.515625 -3.703125 C 3.816406 -3.503906 4.179688 -3.332031 4.609375 -3.1875 C 5.046875 -3.039062 5.535156 -2.96875 6.078125 -2.96875 C 6.691406 -2.96875 7.113281 -3.054688 7.34375 -3.234375 C 7.582031 -3.421875 7.703125 -3.648438 7.703125 -3.921875 C 7.703125 -4.171875 7.535156 -4.378906 7.203125 -4.546875 C 6.867188 -4.722656 6.445312 -4.890625 5.9375 -5.046875 C 5.4375 -5.210938 4.894531 -5.398438 4.3125 -5.609375 C 3.738281 -5.828125 3.195312 -6.097656 2.6875 -6.421875 C 2.1875 -6.753906 1.769531 -7.160156 1.4375 -7.640625 C 1.113281 -8.128906 0.953125 -8.734375 0.953125 -9.453125 C 0.953125 -9.992188 1.066406 -10.503906 1.296875 -10.984375 C 1.523438 -11.472656 1.859375 -11.90625 2.296875 -12.28125 C 2.742188 -12.664062 3.296875 -12.96875 3.953125 -13.1875 C 4.609375 -13.40625 5.363281 -13.515625 6.21875 -13.515625 C 7.0625 -13.515625 7.800781 -13.40625 8.4375 -13.1875 C 9.082031 -12.96875 9.617188 -12.734375 10.046875 -12.484375 C 10.554688 -12.171875 10.988281 -11.835938 11.34375 -11.484375 L 9.1875 -9.1875 C 8.96875 -9.382812 8.707031 -9.5625 8.40625 -9.71875 C 8.15625 -9.863281 7.84375 -9.988281 7.46875 -10.09375 C 7.101562 -10.207031 6.6875 -10.265625 6.21875 -10.265625 C 5.75 -10.265625 5.40625 -10.175781 5.1875 -10 C 4.96875 -9.832031 4.859375 -9.648438 4.859375 -9.453125 C 4.859375 -9.203125 5.023438 -8.988281 5.359375 -8.8125 C 5.691406 -8.644531 6.109375 -8.476562 6.609375 -8.3125 C 7.117188 -8.15625 7.660156 -7.96875 8.234375 -7.75 C 8.816406 -7.53125 9.359375 -7.257812 9.859375 -6.9375 C 10.359375 -6.613281 10.773438 -6.207031 11.109375 -5.71875 C 11.441406 -5.238281 11.609375 -4.640625 11.609375 -3.921875 C 11.609375 -3.335938 11.492188 -2.796875 11.265625 -2.296875 C 11.035156 -1.796875 10.6875 -1.351562 10.21875 -0.96875 C 9.75 -0.59375 9.171875 -0.289062 8.484375 -0.0625 C 7.796875 0.15625 6.992188 0.265625 6.078125 0.265625 Z M 6.078125 0.265625 "/></g></g></g><g fill="#7428ea" fill-opacity="1"><g transform="translate(450.716036, 425.33463)"><g><path d="M 7.96875 0.265625 C 7 0.265625 6.082031 0.0859375 5.21875 -0.265625 C 4.363281 -0.628906 3.617188 -1.125 2.984375 -1.75 C 2.347656 -2.382812 1.847656 -3.113281 1.484375 -3.9375 C 1.128906 -4.769531 0.953125 -5.664062 0.953125 -6.625 C 0.953125 -7.5625 1.128906 -8.445312 1.484375 -9.28125 C 1.847656 -10.113281 2.34375 -10.84375 2.96875 -11.46875 C 3.601562 -12.101562 4.332031 -12.601562 5.15625 -12.96875 C 5.988281 -13.332031 6.878906 -13.515625 7.828125 -13.515625 C 8.753906 -13.515625 9.613281 -13.335938 10.40625 -12.984375 C 11.207031 -12.628906 11.90625 -12.15625 12.5 -11.5625 C 13.101562 -10.96875 13.578125 -10.269531 13.921875 -9.46875 C 14.273438 -8.664062 14.453125 -7.804688 14.453125 -6.890625 C 14.453125 -6.640625 14.441406 -6.414062 14.421875 -6.21875 C 14.410156 -6.03125 14.394531 -5.867188 14.375 -5.734375 C 14.351562 -5.546875 14.332031 -5.390625 14.3125 -5.265625 L 4.734375 -5.265625 C 4.929688 -4.648438 5.3125 -4.113281 5.875 -3.65625 C 6.445312 -3.195312 7.234375 -2.96875 8.234375 -2.96875 C 8.816406 -2.96875 9.320312 -3.039062 9.75 -3.1875 C 10.1875 -3.332031 10.554688 -3.503906 10.859375 -3.703125 C 11.203125 -3.921875 11.5 -4.171875 11.75 -4.453125 L 13.640625 -1.890625 C 13.242188 -1.492188 12.757812 -1.132812 12.1875 -0.8125 C 11.695312 -0.539062 11.097656 -0.289062 10.390625 -0.0625 C 9.691406 0.15625 8.882812 0.265625 7.96875 0.265625 Z M 10.671875 -7.96875 C 10.472656 -8.582031 10.113281 -9.117188 9.59375 -9.578125 C 9.082031 -10.035156 8.453125 -10.265625 7.703125 -10.265625 C 6.941406 -10.265625 6.304688 -10.035156 5.796875 -9.578125 C 5.285156 -9.117188 4.929688 -8.582031 4.734375 -7.96875 Z M 10.671875 -7.96875 "/></g></g></g></svg>